<svg width="80" height="30" viewBox="0 0 80 30" fill="none" xmlns="http://www.w3.org/2000/svg">
<rect x="0.5" y="0.5" width="79" height="29" rx="14.5" fill="white" stroke="#FFAA2F"/>
<path d="M17.656 15.016H18.984V17.544H17.656V15.016ZM11.784 14.552H24.856V15.624H11.784V14.552ZM18.312 17.144C21.416 17.144 23.272 18.056 23.272 19.688C23.272 21.304 21.416 22.216 18.312 22.216C15.208 22.216 13.352 21.304 13.352 19.688C13.352 18.056 15.208 17.144 18.312 17.144ZM18.312 18.168C16.056 18.168 14.696 18.712 14.696 19.688C14.696 20.648 16.056 21.192 18.312 21.192C20.584 21.192 21.928 20.648 21.928 19.688C21.928 18.712 20.584 18.168 18.312 18.168ZM17.464 8.968H18.648V9.4C18.648 11.736 15.992 13.304 13 13.672L12.52 12.616C15.112 12.344 17.464 11.048 17.464 9.4V8.968ZM18.024 8.968H19.192V9.4C19.192 11.048 21.544 12.344 24.136 12.616L23.656 13.672C20.664 13.304 18.024 11.736 18.024 9.4V8.968ZM12.984 8.44H23.688V9.512H12.984V8.44ZM26.5028 15.24H39.5748V16.328H26.5028V15.24ZM32.3908 13.08H33.7028V15.576H32.3908V13.08ZM27.9588 17.736H37.9588V22.248H36.6308V18.824H27.9588V17.736ZM28.2468 8.12H29.5588V9.752H36.5508V8.12H37.8788V13.528H28.2468V8.12ZM29.5588 10.792V12.472H36.5508V10.792H29.5588ZM45.0135 14.568H46.3415V16.424H45.0135V14.568ZM51.1095 7.8H52.4375V17.496H51.1095V7.8ZM51.8775 12.168H54.5495V13.272H51.8775V12.168ZM41.3175 17.08L41.1415 15.992C43.7335 15.992 47.2535 15.992 50.2455 15.56L50.3575 16.504C47.2695 17.048 43.8455 17.064 41.3175 17.08ZM42.9335 18.216H52.4375V22.248H51.1095V19.272H42.9335V18.216ZM41.5095 9.096H49.8135V10.088H41.5095V9.096ZM45.6695 10.648C47.7015 10.648 49.0295 11.464 49.0295 12.792C49.0295 14.12 47.7015 14.936 45.6695 14.936C43.6215 14.936 42.2935 14.12 42.2935 12.792C42.2935 11.464 43.6215 10.648 45.6695 10.648ZM45.6695 11.56C44.3735 11.56 43.5415 12.024 43.5415 12.792C43.5415 13.528 44.3735 14.008 45.6695 14.008C46.9495 14.008 47.7815 13.528 47.7815 12.792C47.7815 12.024 46.9495 11.56 45.6695 11.56ZM45.0135 7.672H46.3415V9.576H45.0135V7.672ZM66.4683 7.8H67.8123V18.36H66.4683V7.8ZM58.5163 20.84H68.2443V21.928H58.5163V20.84ZM58.5163 17.272H59.8283V21.208H58.5163V17.272ZM60.0523 8.792C62.2123 8.792 63.8123 10.264 63.8123 12.36C63.8123 14.44 62.2123 15.928 60.0523 15.928C57.8923 15.928 56.2763 14.44 56.2763 12.36C56.2763 10.264 57.8923 8.792 60.0523 8.792ZM60.0523 9.944C58.6443 9.944 57.5723 10.936 57.5723 12.36C57.5723 13.768 58.6443 14.76 60.0523 14.76C61.4603 14.76 62.5323 13.768 62.5323 12.36C62.5323 10.936 61.4603 9.944 60.0523 9.944Z" fill="#FFAA2F"/>
</svg>
