<svg width="305" height="53" viewBox="0 0 305 53" fill="none" xmlns="http://www.w3.org/2000/svg">
<rect x="0.75" y="0.75" width="303.5" height="51.5" rx="9.25" fill="white" stroke="#FFAA2F" stroke-width="1.5"/>
<path d="M129.789 31.064H143.197V32.792H129.789V31.064ZM135.405 28.264H137.533V31.768H135.405V28.264ZM131.293 20.568H141.693V25.496H133.437V27.992H131.325V23.832H139.581V22.248H131.293V20.568ZM131.325 27.144H142.029V28.856H131.325V27.144ZM145.868 20.968H155.26V22.648H145.868V20.968ZM144.508 30.76H157.9V32.488H144.508V30.76ZM154.14 20.968H156.252V22.728C156.252 24.808 156.252 26.824 155.724 29.864L153.596 29.688C154.14 26.84 154.14 24.728 154.14 22.728V20.968ZM169.387 19.624H171.531V30.264H169.387V19.624ZM161.659 32.472H171.899V34.168H161.659V32.472ZM161.659 29.192H163.787V33.16H161.659V29.192ZM163.467 20.552C165.739 20.552 167.483 22.12 167.483 24.312C167.483 26.488 165.739 28.072 163.467 28.072C161.195 28.072 159.435 26.488 159.435 24.312C159.435 22.12 161.195 20.552 163.467 20.552ZM163.467 22.392C162.363 22.392 161.515 23.096 161.515 24.312C161.515 25.512 162.363 26.216 163.467 26.216C164.555 26.216 165.403 25.512 165.403 24.312C165.403 23.096 164.555 22.392 163.467 22.392Z" fill="#FFAA2F"/>
</svg>
