<svg width="300" height="53" viewBox="0 0 300 53" fill="none" xmlns="http://www.w3.org/2000/svg">
<rect x="0.75" y="0.75" width="298.5" height="51.5" rx="9.25" fill="white" stroke="#FFAA2F" stroke-width="1.5"/>
<path d="M128.656 31.064H142.064V32.792H128.656V31.064ZM134.272 28.264H136.4V31.768H134.272V28.264ZM130.16 20.568H140.56V25.496H132.304V27.992H130.192V23.832H138.448V22.248H130.16V20.568ZM130.192 27.144H140.896V28.856H130.192V27.144ZM144.735 20.968H154.127V22.648H144.735V20.968ZM143.375 30.76H156.767V32.488H143.375V30.76ZM153.007 20.968H155.119V22.728C155.119 24.808 155.119 26.824 154.591 29.864L152.463 29.688C153.007 26.84 153.007 24.728 153.007 22.728V20.968ZM168.254 19.624H170.398V30.264H168.254V19.624ZM160.526 32.472H170.766V34.168H160.526V32.472ZM160.526 29.192H162.654V33.16H160.526V29.192ZM162.334 20.552C164.606 20.552 166.35 22.12 166.35 24.312C166.35 26.488 164.606 28.072 162.334 28.072C160.062 28.072 158.302 26.488 158.302 24.312C158.302 22.12 160.062 20.552 162.334 20.552ZM162.334 22.392C161.23 22.392 160.382 23.096 160.382 24.312C160.382 25.512 161.23 26.216 162.334 26.216C163.422 26.216 164.27 25.512 164.27 24.312C164.27 23.096 163.422 22.392 162.334 22.392Z" fill="#FFAA2F"/>
</svg>
