<svg width="295" height="42" viewBox="0 0 295 42" fill="none" xmlns="http://www.w3.org/2000/svg">
<rect x="0.75" y="0.75" width="293.5" height="40.5" rx="9.25" fill="white" stroke="currentColor" stroke-width="1.5"/>
<path d="M98.112 14.592H100.256V29.456H98.112V14.592ZM99.776 20.08H102.4V21.824H99.776V20.08ZM89.216 24.128H90.464C92.96 24.128 94.928 24.048 97.104 23.664L97.312 25.424C95.072 25.824 93.04 25.888 90.464 25.888H89.216V24.128ZM89.216 15.968H96.128V17.68H91.328V24.976H89.216V15.968ZM110.063 14.88C113.327 14.88 115.423 15.984 115.423 17.776C115.423 19.568 113.327 20.656 110.063 20.656C106.799 20.656 104.703 19.568 104.703 17.776C104.703 15.984 106.799 14.88 110.063 14.88ZM110.063 16.528C108.031 16.528 106.895 16.928 106.895 17.776C106.895 18.608 108.031 19.024 110.063 19.024C112.079 19.024 113.231 18.608 113.231 17.776C113.231 16.928 112.079 16.528 110.063 16.528ZM104.911 24.208H115.151V29.264H104.911V24.208ZM113.071 25.888H107.007V27.584H113.071V25.888ZM103.359 21.504H116.751V23.184H103.359V21.504ZM124.782 15.344C127.902 15.344 130.318 17.056 130.318 19.632C130.318 22.224 127.902 23.92 124.782 23.92C121.661 23.92 119.246 22.224 119.246 19.632C119.246 17.056 121.661 15.344 124.782 15.344ZM124.782 17.072C122.766 17.072 121.326 18.032 121.326 19.632C121.326 21.216 122.766 22.176 124.782 22.176C126.798 22.176 128.238 21.216 128.238 19.632C128.238 18.032 126.798 17.072 124.782 17.072ZM118.094 25.904H131.502V27.648H118.094V25.904ZM132.812 26.064H146.22V27.792H132.812V26.064ZM138.428 23.264H140.556V26.768H138.428V23.264ZM134.316 15.568H144.716V20.496H136.46V22.992H134.348V18.832H142.604V17.248H134.316V15.568ZM134.348 22.144H145.052V23.856H134.348V22.144ZM154.215 23.696H164.071V29.264H154.215V23.696ZM161.991 25.36H156.311V27.584H161.991V25.36ZM152.487 15.392H154.599V21.536H152.487V15.392ZM152.487 20.768H153.719C155.815 20.768 157.975 20.64 160.231 20.192L160.455 21.952C158.135 22.416 155.895 22.544 153.719 22.544H152.487V20.768ZM161.943 14.608H164.071V23.056H161.943V14.608ZM158.359 17.072H162.407V18.784H158.359V17.072ZM170.454 15.632C172.662 15.632 174.278 17.68 174.278 20.912C174.278 24.176 172.662 26.224 170.454 26.224C168.23 26.224 166.63 24.176 166.63 20.912C166.63 17.68 168.23 15.632 170.454 15.632ZM170.454 17.568C169.382 17.568 168.662 18.736 168.662 20.912C168.662 23.12 169.382 24.304 170.454 24.304C171.542 24.304 172.246 23.12 172.246 20.912C172.246 18.736 171.542 17.568 170.454 17.568ZM176.71 14.592H178.822V29.456H176.71V14.592ZM173.654 19.936H177.606V21.648H173.654V19.936ZM190.581 14.592H192.725V29.408H190.581V14.592ZM192.165 20.256H194.773V22H192.165V20.256ZM186.693 16.128H188.773C188.773 20.576 187.077 24.384 182.149 26.864L180.965 25.248C184.853 23.232 186.693 20.512 186.693 16.496V16.128ZM181.781 16.128H187.781V17.84H181.781V16.128ZM206.036 14.608H208.18V29.424H206.036V14.608ZM201.668 16.144H203.78C203.78 20.672 202.244 24.384 196.98 26.928L195.876 25.232C200.132 23.184 201.668 20.496 201.668 16.528V16.144ZM196.66 16.144H202.676V17.824H196.66V16.144Z" fill="currentColor"/>
</svg>
