<svg width="300" height="27" viewBox="0 0 300 27" fill="none" xmlns="http://www.w3.org/2000/svg">
<line y1="12.5" x2="300" y2="12.5" stroke="#8C8C8C"/>
<rect x="82" width="137" height="27" fill="white"/>
<path d="M92.48 8.916C94.076 8.916 95.204 10.392 95.204 12.696C95.204 15.012 94.076 16.488 92.48 16.488C90.884 16.488 89.756 15.012 89.756 12.696C89.756 10.392 90.884 8.916 92.48 8.916ZM92.48 9.816C91.424 9.816 90.704 10.944 90.704 12.696C90.704 14.46 91.424 15.612 92.48 15.612C93.524 15.612 94.256 14.46 94.256 12.696C94.256 10.944 93.524 9.816 92.48 9.816ZM96.932 8.088H97.94V18.936H96.932V8.088ZM97.7 12.42H99.716V13.26H97.7V12.42ZM103.519 9.204H104.347V10.068C104.347 12.06 103.123 13.728 101.299 14.376L100.783 13.596C102.415 13.02 103.519 11.604 103.519 10.068V9.204ZM103.711 9.204H104.539V10.068C104.539 11.532 105.667 12.852 107.275 13.392L106.759 14.172C104.959 13.56 103.711 11.964 103.711 10.068V9.204ZM108.523 8.088H109.531V14.652H108.523V8.088ZM102.283 15.228H109.531V18.936H108.523V16.044H102.283V15.228ZM101.047 8.844H106.987V9.648H101.047V8.844ZM117.879 14.592H118.887V16.38H117.879V14.592ZM122.631 8.088H123.627V18.936H122.631V8.088ZM114.987 16.872L114.855 16.044C116.907 16.032 119.607 16.008 121.947 15.708L122.019 16.44C119.607 16.848 116.991 16.872 114.987 16.872ZM115.083 9.408H121.671V10.212H115.083V9.408ZM118.371 10.836C119.931 10.836 120.987 11.628 120.987 12.84C120.987 14.064 119.931 14.844 118.371 14.844C116.823 14.844 115.767 14.064 115.767 12.84C115.767 11.628 116.823 10.836 118.371 10.836ZM118.371 11.604C117.399 11.604 116.715 12.096 116.715 12.84C116.715 13.584 117.399 14.076 118.371 14.076C119.355 14.076 120.039 13.584 120.039 12.84C120.039 12.096 119.355 11.604 118.371 11.604ZM117.879 8.088H118.875V9.852H117.879V8.088ZM128.906 13.548H129.902V15.96H128.906V13.548ZM133.718 8.088H134.714V16.344H133.718V8.088ZM127.31 17.88H134.978V18.696H127.31V17.88ZM127.31 15.54H128.306V18.108H127.31V15.54ZM125.906 13.92L125.774 13.104C127.778 13.104 130.466 13.08 132.77 12.78L132.842 13.512C130.502 13.884 127.874 13.92 125.906 13.92ZM131.51 14.496H133.97V15.228H131.51V14.496ZM129.302 8.532C130.886 8.532 131.966 9.276 131.966 10.416C131.966 11.568 130.886 12.312 129.302 12.312C127.706 12.312 126.626 11.568 126.626 10.416C126.626 9.276 127.706 8.532 129.302 8.532ZM129.302 9.276C128.282 9.276 127.574 9.72 127.574 10.416C127.574 11.112 128.282 11.556 129.302 11.556C130.31 11.556 131.018 11.112 131.018 10.416C131.018 9.72 130.31 9.276 129.302 9.276ZM144.745 8.076H145.741V18.948H144.745V8.076ZM140.017 8.916C141.625 8.916 142.777 10.392 142.777 12.696C142.777 15.012 141.625 16.488 140.017 16.488C138.421 16.488 137.269 15.012 137.269 12.696C137.269 10.392 138.421 8.916 140.017 8.916ZM140.017 9.816C138.961 9.816 138.217 10.944 138.217 12.696C138.217 14.46 138.961 15.612 140.017 15.612C141.085 15.612 141.817 14.46 141.817 12.696C141.817 10.944 141.085 9.816 140.017 9.816ZM153.91 8.916C155.506 8.916 156.634 10.392 156.634 12.696C156.634 15.012 155.506 16.488 153.91 16.488C152.314 16.488 151.186 15.012 151.186 12.696C151.186 10.392 152.314 8.916 153.91 8.916ZM153.91 9.816C152.854 9.816 152.134 10.944 152.134 12.696C152.134 14.46 152.854 15.612 153.91 15.612C154.954 15.612 155.686 14.46 155.686 12.696C155.686 10.944 154.954 9.816 153.91 9.816ZM158.362 8.088H159.37V18.936H158.362V8.088ZM159.13 12.42H161.146V13.26H159.13V12.42ZM169.953 8.088H170.949V18.936H169.953V8.088ZM162.753 9.144H163.737V15.864H162.753V9.144ZM162.753 15.276H163.641C165.285 15.276 167.001 15.156 168.837 14.772L168.957 15.624C167.073 16.008 165.357 16.14 163.641 16.14H162.753V15.276ZM180.992 8.1H182V16.044H180.992V8.1ZM175.028 17.88H182.324V18.696H175.028V17.88ZM175.028 15.312H176.012V18.264H175.028V15.312ZM175.928 8.688H176.756V9.792C176.756 11.904 175.556 13.752 173.732 14.496L173.216 13.692C174.848 13.056 175.928 11.472 175.928 9.792V8.688ZM176.108 8.688H176.924V9.792C176.924 11.424 178.016 12.9 179.636 13.488L179.108 14.292C177.308 13.596 176.108 11.856 176.108 9.792V8.688ZM191.479 8.076H192.487V18.936H191.479V8.076ZM192.211 12.48H194.215V13.308H192.211V12.48ZM188.707 9.252H189.679C189.679 12.336 188.263 15.12 184.759 16.884L184.207 16.116C187.207 14.592 188.707 12.276 188.707 9.408V9.252ZM184.711 9.252H189.223V10.068H184.711V9.252ZM197.586 13.668H198.57V16.92H197.586V13.668ZM201.594 13.668H202.59V16.92H201.594V13.668ZM195.186 16.728H205.014V17.556H195.186V16.728ZM200.082 8.772C202.374 8.772 204.018 9.864 204.018 11.568C204.018 13.26 202.374 14.352 200.082 14.352C197.778 14.352 196.134 13.26 196.134 11.568C196.134 9.864 197.778 8.772 200.082 8.772ZM200.082 9.564C198.342 9.564 197.094 10.356 197.094 11.568C197.094 12.768 198.342 13.56 200.082 13.56C201.822 13.56 203.058 12.768 203.058 11.568C203.058 10.356 201.822 9.564 200.082 9.564ZM207.312 15.6211V15.3164C207.312 15.0039 207.342 14.7363 207.4 14.5137C207.459 14.2871 207.561 14.0762 207.705 13.8809C207.854 13.6855 208.059 13.4785 208.32 13.2598C208.625 13.0059 208.865 12.791 209.041 12.6152C209.221 12.4355 209.35 12.2559 209.428 12.0762C209.506 11.8965 209.545 11.6797 209.545 11.4258C209.545 11.0195 209.414 10.709 209.152 10.4941C208.891 10.2754 208.521 10.166 208.045 10.166C207.658 10.166 207.314 10.2148 207.014 10.3125C206.713 10.4102 206.424 10.5273 206.146 10.6641L205.807 9.87891C206.127 9.71094 206.475 9.57422 206.85 9.46875C207.225 9.36328 207.643 9.31055 208.104 9.31055C208.857 9.31055 209.441 9.49805 209.855 9.87305C210.27 10.2441 210.477 10.7559 210.477 11.4082C210.477 11.7715 210.418 12.082 210.301 12.3398C210.184 12.5938 210.018 12.8281 209.803 13.043C209.588 13.2539 209.334 13.4785 209.041 13.7168C208.783 13.9355 208.586 14.1289 208.449 14.2969C208.312 14.4609 208.219 14.6309 208.168 14.8066C208.117 14.9785 208.092 15.1855 208.092 15.4277V15.6211H207.312ZM207.055 17.3906C207.055 17.1172 207.119 16.9238 207.248 16.8105C207.377 16.6934 207.543 16.6348 207.746 16.6348C207.938 16.6348 208.1 16.6934 208.232 16.8105C208.369 16.9238 208.438 17.1172 208.438 17.3906C208.438 17.6602 208.369 17.8574 208.232 17.9824C208.1 18.1035 207.938 18.1641 207.746 18.1641C207.543 18.1641 207.377 18.1035 207.248 17.9824C207.119 17.8574 207.055 17.6602 207.055 17.3906Z" fill="#8C8C8C"/>
</svg>